<?xml version="1.0" encoding="UTF-8"?>
<svg id="Layer_2" data-name="Layer 2" xmlns="http://www.w3.org/2000/svg" viewBox="0 0 96.51 61.42">
  <defs>
    <style>
      .cls-1 {
        fill: #0c8346;
        opacity: .99;
        stroke-width: 0px;
      }
    </style>
  </defs>
  <g id="Layer_1-2" data-name="Layer 1">
    <g>
      <path class="cls-1" d="M79.54,23.61h-26.88l-2.64,14.72h23.38c1.15,0,1.92.9,1.72,2.03l-.52,2.91c-.2,1.13-1.31,2.05-2.46,2.05H2.89L0,61.4h25.06v.02h1.81c.14,0,.29,0,.43-.02h43.63v.02h1.81c9.01,0,17.61-7.18,19.21-16.03l1.04-5.76c1.58-8.85-4.42-16.03-13.43-16.03Z"/>
      <path class="cls-1" d="M45.92,27.22c.34-1.88-1.11-3.6-3.02-3.6H6.8l-2.65,14.72h39.77l1.99-11.12Z"/>
      <path class="cls-1" d="M93.61,0H11.04l-2.82,15.67h86.05l.61-3.43,1.58-8.83c.36-1.87-.93-3.41-2.84-3.41Z"/>
    </g>
  </g>
</svg>